<svg width="64" height="64" viewBox="0 0 64 64" fill="none" xmlns="http://www.w3.org/2000/svg">
<g filter="url(#filter0_i_573_19068)">
<rect width="64" height="64" rx="12" fill="url(#paint0_linear_573_19068)"/>
<rect x="0.6" y="0.6" width="62.8" height="62.8" rx="11.4" stroke="black" stroke-opacity="0.1" stroke-width="1.2"/>
<path d="M10.3557 41.5834L22.4636 21.076C22.6942 20.6855 23.1141 20.4458 23.5678 20.4458H43.2925C44.2849 20.4458 44.9012 21.5246 44.3967 22.379L32.2888 42.8864C32.0581 43.2769 31.6382 43.5166 31.1846 43.5166H11.4599C10.4674 43.5166 9.85125 42.4378 10.3557 41.5834Z" fill="white"/>
<path d="M38.708 43.5163H52.4859C53.4527 43.5163 54.0717 42.4874 53.6184 41.6337L47.1122 29.3824C46.643 28.499 45.3875 28.4692 44.877 29.3294L37.6052 41.5807C37.0982 42.435 37.7142 43.5163 38.708 43.5163Z" fill="white"/>
</g>
<defs>
<filter id="filter0_i_573_19068" x="0" y="0" width="64" height="64" filterUnits="userSpaceOnUse" color-interpolation-filters="sRGB">
<feFlood flood-opacity="0" result="BackgroundImageFix"/>
<feBlend mode="normal" in="SourceGraphic" in2="BackgroundImageFix" result="shape"/>
<feColorMatrix in="SourceAlpha" type="matrix" values="0 0 0 0 0 0 0 0 0 0 0 0 0 0 0 0 0 0 127 0" result="hardAlpha"/>
<feOffset dy="0.5"/>
<feComposite in2="hardAlpha" operator="arithmetic" k2="-1" k3="1"/>
<feColorMatrix type="matrix" values="0 0 0 0 1 0 0 0 0 1 0 0 0 0 1 0 0 0 0.32 0"/>
<feBlend mode="normal" in2="shape" result="effect1_innerShadow_573_19068"/>
</filter>
<linearGradient id="paint0_linear_573_19068" x1="32.2758" y1="95.7242" x2="-31.7242" y2="31.7242" gradientUnits="userSpaceOnUse">
<stop stop-color="#FB432C"/>
<stop offset="1" stop-color="#FF591E"/>
</linearGradient>
</defs>
</svg>
